# AST/ASF file generated using VICON BodyLanguage
# -----------------------------------------------
:version 1.10
:name VICON
:units
  mass 1.0
  length 0.45
  angle deg
:documentation
   .ast/.asf automatically generated from VICON data using
   VICON BodyBuilder and BodyLanguage model FoxedUp or BRILLIANT.MOD
:root
   order TX TY TZ RX RY RZ
   axis XYZ
   position 0 0 0  
   orientation 0 0 0 
:bonedata
  begin
     id 1 
     name lhipjoint
     direction 0.722297 -0.617336 0.311742 
     length 2.6635 
     axis 0 0 0  XYZ
  end
  begin
     id 2 
     name lfemur
     direction 0.34202 -0.939693 0  
     length 7.39349  
     axis 0 0 20  XYZ
    dof rx ry rz
    limits (-160.0 20.0)
           (-70.0 70.0)
           (-60.0 70.0)
  end
  begin
     id 3 
     name ltibia
     direction 0.34202 -0.939693 0   
     length 7.36294   
     axis 0 0 20   XYZ
    dof rx
    limits (-10.0 170.0)
  end
  begin
     id 4 
     name lfoot
     direction 0.104879 -0.288152 0.951824   
     length 2.16981   
     axis -90 7.62852e-016 20   XYZ
    dof rx rz
    limits (-45.0 90.0)
           (-70.0 20.0)
  end
  begin
     id 5 
     name ltoes
     direction 1.53586e-011 -4.21895e-011 1   
     length 1.08218   
     axis -90 7.62852e-016 20   XYZ
    dof rx
    limits (-90.0 20.0)
  end
  begin
     id 6 
     name rhipjoint
     direction -0.75102 -0.589393 0.297631   
     length 2.78977  
     axis 0 0 0  XYZ 
  end
  begin
     id 7 
     name rfemur
     direction -0.34202 -0.939693 0   
     length 7.46076   
     axis 0 0 -20   XYZ
    dof rx ry rz
    limits (-160.0 20.0)
           (-70.0 70.0)
           (-70.0 60.0)
  end
  begin
     id 8 
     name rtibia
     direction -0.34202 -0.939693 0   
     length 7.31726   
     axis 0 0 -20   XYZ
    dof rx
    limits (-10.0 170.0)
 end
 begin
     id 9 
     name rfoot
     direction -0.107991 -0.296704 0.948844   
     length 2.09388  
     axis -90 -7.62852e-016 -20   XYZ
    dof rx rz
    limits (-45.0 90.0)
           (-20.0 70.0)
  end
  begin
     id 10 
     name rtoes
     direction -1.53559e-011 -4.21911e-011 1   
     length 1.04433   
     axis -90 -7.62852e-016 -20   XYZ
    dof rx
    limits (-90.0 20.0)
  end
  begin
     id 11 
     name lowerback
     direction 0.0165164 0.98272 0.184358   
     length 1.71896   
     axis 0 0 0   XYZ
    dof rx ry rz
    limits (-20.0 45.0)
           (-30.0 30.0)
           (-30.0 30.0)
  end
  begin
     id 12 
     name upperback
     direction -0.00887249 0.992297 0.123566   
     length 1.71504   
     axis 0 0 0   XYZ
    dof rx ry rz
    limits (-20.0 45.0)
           (-30.0 30.0)
           (-30.0 30.0)
  end
  begin
     id 13 
     name thorax
     direction -0.0157026 0.998908 0.0440032   
     length 1.77022   
     axis 0 0 0   XYZ
    dof rx ry rz
    limits (-20.0 45.0)
           (-30.0 30.0)
           (-30.0 30.0)
  end
  begin
     id 14 
     name lowerneck
     direction -0.0238856 0.998137 0.0561411   
     length 1.89341   
     axis 0 0 0   XYZ
    dof rx ry rz
    limits (-20.0 45.0)
           (-30.0 30.0)
           (-30.0 30.0)
  end
  begin
     id 15 
     name upperneck
     direction 0.0276574 0.952253 -0.304056   
     length 1.86999   
     axis 0 0 0   XYZ
    dof rx ry rz
    limits (-20.0 45.0)
           (-30.0 30.0)
           (-30.0 30.0)
  end
  begin
     id 16
     name head
     direction 0.00800083 0.994258 -0.106712  
     length 1.91492  
     axis 0 0 0   XYZ
    dof rx ry rz
    limits (-20.0 45.0)
           (-30.0 30.0)
           (-30.0 30.0)
  end
  begin
     id 17 
     name lclavicle
     direction 0.97203 0.225407 0.06595  
     length 3.34889  
     axis 0 0 0   XYZ
    dof ry rz
    limits (-20.0 10.0)
           (0.0 20.0)
  end
  begin
     id 18 
     name lhumerus
     direction 1 -4.48973e-011 2.20267e-027   
     length 4.85645   
     axis 180 -30 -90   XYZ
    dof rx ry rz
    limits (-60.0 90.0)
           (-90.0 90.0)
           (-90.0 90.0)
  end
  begin
     id 19
     name lradius
     direction 1 -4.4897e-011 4.60472e-027   
     length 2.79874   
     axis 180 -30 -90   XYZ
    dof rx
    limits (-10.0 170.0)
  end
  begin
     id 20
     name lwrist
     direction 1 -4.48952e-011 1.14928e-026   
     length 1.39937   
     axis -6.29373e-015 90 90   XYZ
    dof ry
    limits (-180.0 0.0)
 end
  begin
     id 21 
     name lhand
     direction 1 -4.48967e-011 2.29886e-026   
     length 0.573398   
     axis -1.46689e-014 90 90   XYZ
    dof rx rz
    limits (-90.0 90.0)
           (-45.0 45.0)
  end
  begin
     id 22 
     name lfingers
     direction 1 -4.48955e-011 4.59726e-026   
     length 0.462289   
     axis -2.93383e-014 90 90   XYZ
    dof rx
    limits (0.0 90.0)
  end
  begin
     id 23
     name lthumb
     direction 0.707107 -6.34866e-011 0.707107   
     length 0.663757   
     axis -90 45 5.69224e-014   XYZ
    dof rx rz
    limits (-45.0 45.0)
           (-45.0 45.0)
  end
  begin
     id 24 
     name rclavicle
     direction -0.981571 0.157346 0.108443   
     length 3.35257  
     axis 0 0 0   XYZ 
    dof ry rz
    limits (-10.0 20.0)
           (-20.0 0.0)
  end
  begin
     id 25 
     name rhumerus
     direction -1 -4.48967e-011 8.58308e-029  
     length 4.67018   
     axis 180 30 90   XYZ
    dof rx ry rz
    limits (-90.0 60.0)
           (-90.0 90.0)
           (-90.0 90.0)
  end
  begin
     id 26 
     name rradius
     direction -1 -4.48958e-011 4.52548e-027   
     length 2.65534   
     axis 180 30 90   XYZ
    dof rx
    limits (-10.0 170.0)
  end
  begin
     id 27 
     name rwrist
     direction -1 -4.48977e-011 1.14952e-026   
     length 1.32767   
     axis -6.29373e-015 -90 -90   XYZ
    dof ry
    limits (-180.0 0.0)
  end
  begin
     id 28
     name rhand
     direction -1 -4.48924e-011 2.29804e-026   
     length 0.594069   
     axis -1.46689e-014 -90 -90   XYZ
    dof rx rz
    limits (-90.0 90.0)
           (-45.0 45.0)
  end
  begin
     id 29
     name rfingers
     direction -1 -4.48998e-011 4.59888e-026   
     length 0.478954   
     axis -2.93383e-014 -90 -90   XYZ
    dof rx
    limits (0.0 90.0)
  end
  begin
     id 30
     name rthumb
     direction -0.707107 -6.34933e-011 0.707107   
     length 0.687685   
     axis -90 -45 -5.69224e-014   XYZ
    dof rx rz
    limits (-45.0 45.0)
           (-45.0 45.0)
  end
:hierarchy
  begin
    root lhipjoint rhipjoint lowerback
    lhipjoint lfemur
    lfemur ltibia
    ltibia lfoot
    lfoot ltoes
    rhipjoint rfemur
    rfemur rtibia
    rtibia rfoot
    rfoot rtoes
    lowerback upperback
    upperback thorax
    thorax lowerneck lclavicle rclavicle
    lowerneck upperneck
    upperneck head
    lclavicle lhumerus
    lhumerus lradius
    lradius lwrist
    lwrist lhand lthumb
    lhand lfingers
    rclavicle rhumerus
    rhumerus rradius
    rradius rwrist
    rwrist rhand rthumb
    rhand rfingers
  end

#!OML:ASF E:\pregnant2\Project 1\Capture day 1\Session 1\pregnant2.ASF
:FULLY-SPECIFIED
:DEGREES
1633
root -8.96686 4.34566 19.9908 -60.3267 -34.3492 101.076
lowerback -3.87847 -7.55129 0.446811
upperback -7.81553 -10.7815 -4.0474
thorax -6.94405 -5.78818 -4.15262
lowerneck -10.5093 -0.464121 -11.1191
upperneck 40.5498 3.10662 -11.1726
head 16.7856 -2.71597 -2.79043
rclavicle 6.99722e-014 -1.90833e-014
rhumerus -25.0672 12.4588 -52.9375
rradius 118.138
rwrist 14.8061
rhand -40.2068 -24.9728
rfingers 7.12502
rthumb 166.833 125.463
lclavicle 6.99722e-014 -1.90833e-014
lhumerus 114.158 -70.4064 -5.37056
lradius 61.1307
lwrist -5.14992
lhand -13.249 46.3756
lfingers 7.12502
lthumb 192.853 -104.04
rfemur -103.978 25.2526 41.6391
rtibia 115.794
rfoot 23.0555 15.9839
rtoes -39.3935
lfemur -79.5102 11.8387 -10.6532
ltibia 85.0593
lfoot 5.3954 5.0559
ltoes -3.46503
1634
root -8.97286 4.35525 20.0059 -60.4815 -34.5518 101.346
lowerback -3.92032 -7.59502 0.38465
upperback -7.84032 -10.843 -4.02053
thorax -6.93554 -5.81627 -4.09368
lowerneck -10.6022 -0.399531 -11.0611
upperneck 40.5427 3.20443 -11.1653
head 16.8058 -2.66972 -2.7835
rclavicle 3.81667e-014 9.85972e-014
rhumerus -27.2378 13.182 -54.2705
rradius 117.664
rwrist 15.2881
rhand -41.6458 -25.9498
rfingers 7.12502
rthumb 165.446 124.581
lclavicle 3.81667e-014 9.85972e-014
lhumerus 113.901 -70.413 -5.07729
lradius 60.762
lwrist -5.04209
lhand -13.6705 46.1503
lfingers 7.12502
lthumb 192.447 -104.24
rfemur -103.902 25.5282 41.8292
rtibia 115.825
rfoot 23.5093 15.6937
rtoes -39.4524
lfemur -79.5933 12.0405 -10.5535
ltibia 85.5433
lfoot 5.22232 4.92941
ltoes -3.47117
1635
root -8.97755 4.36534 20.017 -60.6394 -34.7563 101.615
lowerback -3.96095 -7.63893 0.31231
upperback -7.86767 -10.9031 -3.98022
thorax -6.92526 -5.84213 -4.01543
lowerneck -10.6982 -0.339039 -11.0006
upperneck 40.5339 3.29788 -11.1651
head 16.8262 -2.62594 -2.78086
rclavicle 1.59028e-014 0
rhumerus -29.3568 13.9176 -55.6373
rradius 117.148
rwrist 15.6989
rhand -42.9307 -26.9569
rfingers 7.12502
rthumb 164.208 123.667
lclavicle 1.59028e-014 0
lhumerus 113.619 -70.4214 -4.74049
lradius 60.401
lwrist -4.89103
lhand -14.3985 45.9876
lfingers 7.12502
lthumb 191.745 -104.362
rfemur -103.923 25.7084 41.8124
rtibia 115.93
rfoot 23.4958 15.7845
rtoes -39.4211
lfemur -79.6625 12.2504 -10.4537
ltibia 86.0084
lfoot 5.07271 4.76437
ltoes -3.50162
1636
root -8.98075 4.37622 20.0225 -60.8108 -34.9627 101.885
lowerback -3.9903 -7.68448 0.220216
upperback -7.89987 -10.9638 -3.92134
thorax -6.91851 -5.86567 -3.90584
lowerneck -10.7914 -0.278379 -10.9547
upperneck 40.5259 3.39386 -11.1664
head 16.847 -2.58402 -2.77622
rclavicle -4.77083e-014 6.99722e-014
rhumerus -31.419 14.6832 -57.026
rradius 116.579
rwrist 16.0388
rhand -44.1741 -27.9778
rfingers 7.12502
rthumb 163.011 122.745
lclavicle -4.77083e-014 6.99722e-014
lhumerus 113.291 -70.4375 -4.33167
lradius 60.0623
lwrist -4.66422
lhand -15.2594 46.0236
lfingers 7.12502
lthumb 190.915 -104.28
rfemur -104.056 25.7743 41.533
rtibia 116.12
rfoot 22.9132 16.3578
rtoes -39.2739
lfemur -79.6999 12.4738 -10.3534
ltibia 86.4416
lfoot 4.95436 4.55655
ltoes -3.55582
1637
root -8.98288 4.38808 20.0234 -61.0082 -35.175 102.162
lowerback -4.01253 -7.73966 0.136781
upperback -7.93586 -11.0372 -3.85354
thorax -6.92049 -5.8956 -3.78988
lowerneck -10.8705 -0.203053 -10.9328
upperneck 40.5122 3.51093 -11.1605
head 16.8617 -2.53609 -2.75993
rclavicle -3.49861e-014 1.27222e-014
rhumerus -33.4103 15.5002 -58.4626
rradius 116.03
rwrist 16.1257
rhand -45.0991 -28.8786
rfingers 7.12502
rthumb 162.121 121.923
lclavicle -3.49861e-014 1.27222e-014
lhumerus 112.81 -70.478 -3.78401
lradius 59.6551
lwrist -4.53994
lhand -16.0461 45.9948
lfingers 7.12502
lthumb 190.156 -104.27
rfemur -104.268 25.7216 41.0078
rtibia 116.382
rfoot 21.782 17.3853
rtoes -38.9893
lfemur -79.6937 12.7084 -10.2449
ltibia 86.8469
lfoot 4.86577 4.30931
ltoes -3.61927
1638
root -8.98425 4.40096 20.021 -61.2349 -35.392 102.45
lowerback -4.02548 -7.79704 0.0476222
upperback -7.97235 -11.1125 -3.77533
thorax -6.9246 -5.92526 -3.65898
lowerneck -10.9399 -0.121505 -10.9258
upperneck 40.4962 3.63792 -11.1553
head 16.8733 -2.48659 -2.73949
rclavicle 7.95139e-014 9.54166e-014
rhumerus -35.3322 16.3424 -59.9221
rradius 115.533
rwrist 15.8795
rhand -45.5821 -29.5055
rfingers 7.12502
rthumb 161.656 121.339
lclavicle 7.95139e-014 9.54166e-014
lhumerus 112.225 -70.5302 -3.12235
lradius 59.2439
lwrist -4.39084
lhand -16.5871 46.1612
lfingers 7.12502
lthumb 189.634 -104.079
rfemur -104.516 25.603 40.3511
rtibia 116.68
rfoot 20.373 18.6837
rtoes -38.5798
lfemur -79.6499 12.9579 -10.135
ltibia 87.2411
lfoot 4.80266 4.01962
ltoes -3.69596
1639
root -8.98589 4.41429 20.0195 -61.5041 -35.6163 102.757
lowerback -4.02729 -7.85218 -0.0158269
upperback -8.0022 -11.1866 -3.71463
thorax -6.93634 -5.95683 -3.55841
lowerneck -11.0004 -0.0297644 -10.9071
upperneck 40.4812 3.7717 -11.1385
head 16.8823 -2.43083 -2.71428
rclavicle 2.22639e-014 6.99722e-014
rhumerus -37.2035 17.1878 -61.448
rradius 115.047
rwrist 15.3952
rhand -45.735 -29.8284
rfingers 7.12502
rthumb 161.509 121.03
lclavicle 2.22639e-014 6.99722e-014
lhumerus 111.581 -70.5915 -2.42674
lradius 58.7999
lwrist -4.28233
lhand -16.9556 46.1941
lfingers 7.12502
lthumb 189.278 -104.03
rfemur -104.711 25.4966 39.7293
rtibia 116.962
rfoot 19.0338 19.9382
rtoes -38.126
lfemur -79.572 13.2186 -10.0187
ltibia 87.6574
lfoot 4.75555 3.69985
ltoes -3.78277
1640
root -8.98814 4.4272 20.0218 -61.8031 -35.8454 103.079
lowerback -4.02872 -7.90305 -0.0572376
upperback -8.02575 -11.2569 -3.6739
thorax -6.94972 -5.98909 -3.49041
lowerneck -11.0597 0.0682627 -10.8612
upperneck 40.4711 3.90666 -11.1166
head 16.8928 -2.36988 -2.69134
rclavicle -1.59028e-013 -6.04305e-014
rhumerus -39.0394 18.0333 -63.0721
rradius 114.477
rwrist 15.014
rhand -45.8463 -30.4298
rfingers 7.12502
rthumb 161.402 120.439
lclavicle -1.59028e-013 -6.04305e-014
lhumerus 110.927 -70.6516 -1.74818
lradius 58.3329
lwrist -4.21886
lhand -16.8719 46.2586
lfingers 7.12502
lthumb 189.359 -103.969
rfemur -104.805 25.4592 39.2667
rtibia 117.183
rfoot 18.0316 20.9084
rtoes -37.7375
lfemur -79.4912 13.4876 -9.8996
ltibia 88.1255
lfoot 4.71803 3.35556
ltoes -3.8646
1641
root -8.99097 4.43972 20.0282 -62.1271 -36.0792 103.415
lowerback -4.02623 -7.9473 -0.0844474
upperback -8.04358 -11.3197 -3.64922
thorax -6.9648 -6.01937 -3.44637
lowerneck -11.122 0.16785 -10.788
upperneck 40.467 4.03672 -11.0893
head 16.9063 -2.30626 -2.67168
rclavicle 4.77083e-014 9.54166e-014
rhumerus -40.8041 18.8098 -64.7421
rradius 113.827
rwrist 14.5736
rhand -45.8237 -30.7468
rfingers 7.12502
rthumb 161.424 120.12
lclavicle 4.77083e-014 9.54166e-014
lhumerus 110.281 -70.7065 -1.08835
lradius 57.8387
lwrist -4.1783
lhand -16.8366 46.1636
lfingers 7.12502
lthumb 189.393 -104.066
rfemur -104.784 25.5248 39.0472
rtibia 117.331
rfoot 17.5387 21.4626
rtoes -37.5101
lfemur -79.4127 13.7633 -9.77814
ltibia 88.6498
lfoot 4.68446 2.9784
ltoes -3.95494
1642
root -8.99443 4.45098 20.0412 -62.4504 -36.3073 103.748
lowerback -4.0299 -7.98627 -0.106023
upperback -8.05937 -11.3768 -3.63903
thorax -6.97808 -6.0482 -3.42142
lowerneck -11.192 0.263986 -10.6819
upperneck 40.4726 4.15576 -11.0621
head 16.9266 -2.24267 -2.66034
rclavicle 4.77083e-014 3.49861e-014
rhumerus -42.5103 19.5222 -66.4592
rradius 112.893
rwrist 14.5829
rhand -46.4319 -31.3698
rfingers 7.12502
rthumb 160.839 119.554
lclavicle 4.77083e-014 3.49861e-014
lhumerus 109.722 -70.7456 -0.518708
lradius 57.3362
lwrist -4.14576
lhand -16.7217 46.0527
lfingers 7.12502
lthumb 189.504 -104.182
rfemur -104.649 25.6804 39.055
rtibia 117.397
rfoot 17.5128 21.5703
rtoes -37.4657
lfemur -79.3738 14.0293 -9.66268
ltibia 89.2423
lfoot 4.68775 2.61741
ltoes -3.9834
1643
root -8.99737 4.46266 20.0546 -62.7645 -36.5281 104.073
lowerback -4.00513 -8.02048 -0.158461
upperback -8.09365 -11.4278 -3.61186
thorax -7.01702 -6.07096 -3.35726
lowerneck -11.2685 0.351267 -10.5567
upperneck 40.4929 4.26474 -11.0598
head 16.9583 -2.1854 -2.66716
rclavicle 1.39944e-013 -3.18055e-014
rhumerus -44.135 20.1664 -68.1482
rradius 111.818
rwrist 14.7243
rhand -47.0451 -32.1196
rfingers 7.12502
rthumb 160.249 118.864
lclavicle 1.39944e-013 -3.18055e-014
lhumerus 109.203 -70.7897 0.0615955
lradius 56.8151
lwrist -4.11186
lhand -16.6831 45.9027
lfingers 7.12502
lthumb 189.541 -104.333
rfemur -104.514 25.9011 39.2507
rtibia 117.449
rfoot 17.9252 21.4122
rtoes -37.57
lfemur -79.3529 14.287 -9.55547
ltibia 89.8638
lfoot 4.72057 2.26035
ltoes -3.98233
1644
root -8.99943 4.47407 20.0693 -63.0627 -36.7411 104.384
lowerback -3.95789 -8.05278 -0.244344
upperback -8.14431 -11.4758 -3.56387
thorax -7.07471 -6.0887 -3.24965
lowerneck -11.3542 0.430137 -10.4277
upperneck 40.5266 4.36539 -11.0715
head 17.0009 -2.13444 -2.68412
rclavicle -1.39944e-013 -4.45278e-014
rhumerus -45.6537 20.7373 -69.7869
rradius 110.61
rwrist 14.9177
rhand -47.6778 -32.9264
rfingers 7.12502
rthumb 159.641 118.121
lclavicle -1.39944e-013 -4.45278e-014
lhumerus 108.688 -70.8378 0.691953
lradius 56.2792
lwrist -4.06239
lhand -16.6825 45.7396
lfingers 7.12502
lthumb 189.542 -104.496
rfemur -104.454 26.0586 39.3083
rtibia 117.514
rfoot 18.0826 21.465
rtoes -37.5723
lfemur -79.3627 14.5399 -9.45978
ltibia 90.5141
lfoot 4.73155 1.814
ltoes -4.01077
